<svg width="28" height="28" viewBox="0 0 28 28" fill="none" xmlns="http://www.w3.org/2000/svg">
<g clip-path="url(#clip0_2496_4076)">
<path fill-rule="evenodd" clip-rule="evenodd" d="M23 14C23 18.9706 18.9706 23 14 23C9.02944 23 5 18.9706 5 14C5 9.02944 9.02944 5 14 5C18.9706 5 23 9.02944 23 14ZM25 14C25 20.0751 20.0751 25 14 25C7.92487 25 3 20.0751 3 14C3 7.92487 7.92487 3 14 3C20.0751 3 25 7.92487 25 14ZM14.5 8.5H12.5V15.5H18V13.5H14.5V8.5Z" fill="#B3B3B3"/>
</g>
<defs>
<clipPath id="clip0_2496_4076">
<rect width="28" height="28" fill="white"/>
</clipPath>
</defs>
</svg>
